<svg width="32" height="32" viewBox="0 0 32 32" fill="none" xmlns="http://www.w3.org/2000/svg">
<g clip-path="url(#clip0_2_6)">
<path d="M18 29H14C13.7348 29 13.4804 28.8946 13.2929 28.7071C13.1054 28.5196 13 28.2652 13 28V26.56C13.0037 26.2862 12.9258 26.0175 12.7763 25.788C12.6268 25.5586 12.4124 25.3789 12.1605 25.2716C11.9085 25.1644 11.6303 25.1346 11.3613 25.1859C11.0924 25.2373 10.8448 25.3675 10.65 25.56L9.65 26.56C9.55704 26.6537 9.44644 26.7281 9.32458 26.7789C9.20272 26.8297 9.07201 26.8558 8.94 26.8558C8.80799 26.8558 8.67728 26.8297 8.55542 26.7789C8.43356 26.7281 8.32296 26.6537 8.23 26.56L5.39 23.78C5.29627 23.687 5.22188 23.5764 5.17111 23.4546C5.12034 23.3327 5.0942 23.202 5.0942 23.07C5.0942 22.938 5.12034 22.8073 5.17111 22.6854C5.22188 22.5636 5.29627 22.453 5.39 22.36L6.39 21.36C6.5825 21.1652 6.71271 20.9176 6.76406 20.6487C6.81541 20.3797 6.78558 20.1015 6.67836 19.8495C6.57113 19.5976 6.39137 19.3832 6.16195 19.2337C5.93253 19.0842 5.66381 19.0063 5.39 19.01H4C3.73478 19.01 3.48043 18.9046 3.29289 18.7171C3.10536 18.5296 3 18.2752 3 18.01V14C3 13.7348 3.10536 13.4804 3.29289 13.2929C3.48043 13.1054 3.73478 13 4 13H5.44C5.71381 13.0037 5.98253 12.9258 6.21195 12.7763C6.44137 12.6268 6.62113 12.4124 6.72836 12.1605C6.83558 11.9085 6.86541 11.6303 6.81406 11.3613C6.76271 11.0924 6.6325 10.8448 6.44 10.65L5.44 9.65C5.34627 9.55704 5.27188 9.44644 5.22111 9.32458C5.17034 9.20272 5.1442 9.07201 5.1442 8.94C5.1442 8.80799 5.17034 8.67728 5.22111 8.55542C5.27188 8.43356 5.34627 8.32296 5.44 8.23L8.22 5.39C8.31296 5.29627 8.42356 5.22188 8.54542 5.17111C8.66728 5.12034 8.79799 5.0942 8.93 5.0942C9.06201 5.0942 9.19272 5.12034 9.31458 5.17111C9.43644 5.22188 9.54704 5.29627 9.64 5.39L10.64 6.39C10.8348 6.5825 11.0824 6.71271 11.3513 6.76406C11.6203 6.81541 11.8985 6.78558 12.1505 6.67836C12.4024 6.57113 12.6168 6.39137 12.7663 6.16195C12.9158 5.93253 12.9937 5.66381 12.99 5.39V4C12.99 3.73478 13.0954 3.48043 13.2829 3.29289C13.4704 3.10536 13.7248 3 13.99 3H17.99C18.2552 3 18.5096 3.10536 18.6971 3.29289C18.8846 3.48043 18.99 3.73478 18.99 4V5.44C18.9863 5.71381 19.0642 5.98253 19.2137 6.21195C19.3632 6.44137 19.5776 6.62113 19.8295 6.72836C20.0815 6.83558 20.3597 6.86541 20.6287 6.81406C20.8976 6.76271 21.1452 6.6325 21.34 6.44L22.34 5.44C22.433 5.34627 22.5436 5.27188 22.6654 5.22111C22.7873 5.17034 22.918 5.1442 23.05 5.1442C23.182 5.1442 23.3127 5.17034 23.4346 5.22111C23.5564 5.27188 23.667 5.34627 23.76 5.44L26.59 8.27C26.6837 8.36296 26.7581 8.47356 26.8089 8.59542C26.8597 8.71728 26.8858 8.84799 26.8858 8.98C26.8858 9.11201 26.8597 9.24272 26.8089 9.36458C26.7581 9.48644 26.6837 9.59704 26.59 9.69L25.59 10.69C25.3975 10.8848 25.2673 11.1324 25.2159 11.4013C25.1646 11.6703 25.1944 11.9485 25.3016 12.2005C25.4089 12.4524 25.5886 12.6668 25.8181 12.8163C26.0475 12.9658 26.3162 13.0437 26.59 13.04H28C28.2652 13.04 28.5196 13.1454 28.7071 13.3329C28.8946 13.5204 29 13.7748 29 14.04V18.04C29 18.3052 28.8946 18.5596 28.7071 18.7471C28.5196 18.9346 28.2652 19.04 28 19.04H26.56C26.2862 19.0363 26.0175 19.1142 25.788 19.2637C25.5586 19.4132 25.3789 19.6276 25.2716 19.8795C25.1644 20.1315 25.1346 20.4097 25.1859 20.6786C25.2373 20.9476 25.3675 21.1952 25.56 21.39L26.56 22.39C26.6537 22.483 26.7281 22.5936 26.7789 22.7154C26.8297 22.8373 26.8558 22.968 26.8558 23.1C26.8558 23.232 26.8297 23.3627 26.7789 23.4846C26.7281 23.6064 26.6537 23.717 26.56 23.81L23.73 26.64C23.637 26.7337 23.5264 26.8081 23.4046 26.8589C23.2827 26.9097 23.152 26.9358 23.02 26.9358C22.888 26.9358 22.7573 26.9097 22.6354 26.8589C22.5136 26.8081 22.403 26.7337 22.31 26.64L21.31 25.64C21.1152 25.4475 20.8676 25.3173 20.5986 25.2659C20.3297 25.2146 20.0515 25.2444 19.7995 25.3516C19.5476 25.4589 19.3332 25.6386 19.1837 25.868C19.0342 26.0975 18.9563 26.3662 18.96 26.64V28C18.9602 28.2584 18.8604 28.5069 18.6814 28.6933C18.5024 28.8798 18.2582 28.9897 18 29ZM15 27H17V26.56C16.9992 25.8923 17.1967 25.2394 17.5676 24.6841C17.9385 24.1288 18.4659 23.6963 19.0831 23.4413C19.7002 23.1863 20.3791 23.1204 21.0338 23.2519C21.6884 23.3834 22.2892 23.7065 22.76 24.18L23.07 24.49L24.49 23.07L24.18 22.76C23.7065 22.2892 23.3834 21.6884 23.2519 21.0338C23.1204 20.3791 23.1863 19.7002 23.4413 19.0831C23.6963 18.4659 24.1288 17.9385 24.6841 17.5676C25.2394 17.1967 25.8923 16.9992 26.56 17H27V15H26.56C25.8923 15.0008 25.2394 14.8033 24.6841 14.4324C24.1288 14.0615 23.6963 13.5341 23.4413 12.9169C23.1863 12.2998 23.1204 11.6209 23.2519 10.9662C23.3834 10.3116 23.7065 9.71075 24.18 9.24L24.49 8.93L23.07 7.51L22.76 7.82C22.2892 8.29355 21.6884 8.61658 21.0338 8.7481C20.3791 8.87963 19.7002 8.81371 19.0831 8.55872C18.4659 8.30373 17.9385 7.87116 17.5676 7.3159C17.1967 6.76064 16.9992 6.10772 17 5.44V5H15V5.44C15.0008 6.10772 14.8033 6.76064 14.4324 7.3159C14.0615 7.87116 13.5341 8.30373 12.9169 8.55872C12.2998 8.81371 11.6209 8.87963 10.9662 8.7481C10.3116 8.61658 9.71075 8.29355 9.24 7.82L8.93 7.51L7.51 8.93L7.82 9.24C8.29355 9.71075 8.61658 10.3116 8.7481 10.9662C8.87963 11.6209 8.81371 12.2998 8.55872 12.9169C8.30373 13.5341 7.87116 14.0615 7.3159 14.4324C6.76064 14.8033 6.10772 15.0008 5.44 15H5V17H5.44C6.10772 16.9992 6.76064 17.1967 7.3159 17.5676C7.87116 17.9385 8.30373 18.4659 8.55872 19.0831C8.81371 19.7002 8.87963 20.3791 8.7481 21.0338C8.61658 21.6884 8.29355 22.2892 7.82 22.76L7.51 23.07L8.93 24.49L9.24 24.18C9.71075 23.7065 10.3116 23.3834 10.9662 23.2519C11.6209 23.1204 12.2998 23.1863 12.9169 23.4413C13.5341 23.6963 14.0615 24.1288 14.4324 24.6841C14.8033 25.2394 15.0008 25.8923 15 26.56V27Z" fill="white"/>
<path d="M16 21C15.0111 21 14.0444 20.7068 13.2222 20.1574C12.3999 19.6079 11.759 18.8271 11.3806 17.9134C11.0022 16.9998 10.9031 15.9945 11.0961 15.0246C11.289 14.0546 11.7652 13.1637 12.4645 12.4645C13.1637 11.7652 14.0546 11.289 15.0246 11.0961C15.9945 10.9031 16.9998 11.0022 17.9134 11.3806C18.8271 11.759 19.6079 12.3999 20.1574 13.2222C20.7068 14.0444 21 15.0111 21 16C21 17.3261 20.4732 18.5979 19.5355 19.5355C18.5979 20.4732 17.3261 21 16 21ZM16 13C15.4067 13 14.8266 13.1759 14.3333 13.5056C13.8399 13.8352 13.4554 14.3038 13.2284 14.852C13.0013 15.4001 12.9419 16.0033 13.0576 16.5853C13.1734 17.1672 13.4591 17.7018 13.8787 18.1213C14.2982 18.5409 14.8328 18.8266 15.4147 18.9424C15.9967 19.0581 16.5999 18.9987 17.1481 18.7716C17.6962 18.5446 18.1648 18.1601 18.4944 17.6667C18.8241 17.1734 19 16.5933 19 16C19 15.2044 18.6839 14.4413 18.1213 13.8787C17.5587 13.3161 16.7957 13 16 13Z" fill="white"/>
</g>
<defs>
<clipPath id="clip0_2_6">
<rect width="32" height="32" fill="white"/>
</clipPath>
</defs>
</svg>
